# xmcd
#
# Track frame offsets:
#	150
#	14082
#	29090
#	42242
#	54122
#	69207
#	83272
#	96380
#	117267
#	130242
#	147937
#	161130
#
# Disc length: 2359 seconds
#
# Revision: 1
# Processed by: cddbd v1.4PL0 Copyright (c) Steve Scherf et al.
# Submitted via: audiograbber 1.82.00
#
DISCID=9e09350c
DTITLE=Various Artist - Turn Back The Hands Of time
DYEAR=1900
DGENRE=R and B
TTITLE0=The O'Jays - Back Stabbers
TTITLE1=James Brown - It's a Man's Man's Man's World
TTITLE2=Tyrone Davis - Turn Back The Hands Of Time
TTITLE3=Bobby Womack - Lookin' For a Love
TTITLE4=Al Green - Let's get Married
TTITLE5=The Main Ingredient - Everybody PLays The fool
TTITLE6=The Temptations - I Can't Get Next To You
TTITLE7=Gladys Knight and the Pips - Midnight Train To Georgia
TTITLE8=The New birth - Dream merchant
TTITLE9=Shirley Brown - Woman To Woman
TTITLE10=The Five Stairsteps - O-o-h Child
TTITLE11=Barbara mason - From His Woman To you
EXTD=
EXTT0=
EXTT1=
EXTT2=
EXTT3=
EXTT4=
EXTT5=
EXTT6=
EXTT7=
EXTT8=
EXTT9=
EXTT10=
EXTT11=
PLAYORDER=
